<?xml version="1.0" standalone="no"?>
<!DOCTYPE svg PUBLIC "-//W3C//DTD SVG 20010904//EN"
 "http://www.w3.org/TR/2001/REC-SVG-20010904/DTD/svg10.dtd">
<svg version="1.0" xmlns="http://www.w3.org/2000/svg"
 width="200.000000pt" height="142.000000pt" viewBox="0 0 200.000000 142.000000"
 preserveAspectRatio="xMidYMid meet">
<metadata>
Created by potrace 1.16, written by Peter Selinger 2001-2019
</metadata>
<g transform="translate(0.000000,142.000000) scale(0.100000,-0.100000)"
fill="#000000" stroke="none">
<path d="M820 897 c0 -52 -3 -96 -6 -100 -3 -3 -18 5 -32 19 -47 43 -144 45
-199 5 -48 -36 -68 -78 -67 -146 0 -80 24 -128 81 -162 59 -34 139 -30 181 10
36 34 42 34 42 -4 0 -28 2 -30 31 -27 l30 3 2 248 2 247 -32 0 -33 0 0 -93z
m-50 -125 c79 -60 55 -196 -40 -222 -75 -20 -140 27 -147 107 -8 82 54 149
127 139 19 -3 46 -14 60 -24z"/>
<path d="M1718 888 c-3 -45 -6 -53 -23 -53 -13 0 -21 -8 -23 -22 -3 -19 1 -23
22 -23 l26 0 0 -105 c0 -160 26 -203 117 -192 53 6 64 15 57 44 -5 18 -11 20
-44 16 -53 -7 -61 12 -58 135 l3 97 53 3 c43 3 52 6 52 22 0 22 -28 33 -73 28
l-32 -3 -3 53 c-3 52 -3 52 -37 52 -34 0 -34 0 -37 -52z"/>
<path d="M213 840 c-31 -13 -73 -51 -89 -82 -16 -32 -18 -125 -4 -164 32 -84
154 -128 247 -89 58 24 67 35 47 56 -14 16 -19 16 -38 4 -36 -23 -89 -28 -129
-11 -36 14 -81 71 -71 88 3 4 66 8 140 8 l134 0 0 41 c0 95 -65 159 -160 158
-30 0 -65 -4 -77 -9z m153 -71 c14 -13 24 -34 24 -51 l0 -28 -111 0 c-110 0
-110 0 -104 23 11 36 35 67 58 77 36 16 106 5 133 -21z"/>
<path d="M960 846 c0 -3 32 -79 70 -170 39 -90 70 -175 70 -188 0 -14 -10 -35
-21 -47 -18 -19 -29 -22 -59 -18 -33 4 -39 2 -49 -20 -10 -22 -8 -25 21 -37
51 -22 114 -3 140 42 16 27 158 373 172 420 7 20 4 22 -24 22 -35 0 -29 10
-96 -172 -21 -58 -41 -105 -45 -103 -3 3 -29 65 -58 140 l-53 135 -34 0 c-19
0 -34 -2 -34 -4z"/>
<path d="M1408 834 c-34 -18 -48 -43 -48 -84 0 -43 43 -84 110 -104 29 -9 59
-21 66 -27 21 -18 17 -57 -7 -70 -26 -14 -97 -6 -138 15 -27 14 -29 14 -39 -8
-10 -22 -7 -25 31 -42 59 -27 156 -26 193 2 50 37 56 103 12 143 -12 11 -44
28 -72 37 -92 29 -114 54 -80 88 19 20 74 21 118 2 32 -13 34 -13 45 10 10 23
8 26 -24 40 -44 18 -132 17 -167 -2z"/>
</g>
</svg>
